<svg xmlns="http://www.w3.org/2000/svg" viewBox="0 0 512 512">
  <!-- Background: deep plum -->
  <rect width="512" height="512" rx="114" fill="#0a0614"/>

  <!-- Outer ring -->
  <circle cx="256" cy="256" r="210" fill="none" stroke="#c9a84c" stroke-width="1.5" opacity="0.35"/>
  <!-- Inner ring -->
  <circle cx="256" cy="256" r="158" fill="none" stroke="#c9a84c" stroke-width="1" opacity="0.20"/>

  <!-- Cardinal compass points — long, bold, bright gold -->
  <g transform="translate(256,256)" fill="#c9a84c">
    <polygon points="0,-148  11,-28  0,-6  -11,-28" opacity="1"/>
    <polygon points="0,148   11,28   0,6   -11,28"  opacity="1"/>
    <polygon points="148,0   28,11   6,0   28,-11"  opacity="1"/>
    <polygon points="-148,0 -28,11  -6,0  -28,-11"  opacity="1"/>
  </g>

  <!-- Diagonal points — shorter, rose -->
  <g transform="translate(256,256)" fill="#d4a0b5">
    <polygon points="0,-92  7,-18  0,0  -7,-18" opacity="0.85" transform="rotate(45)"/>
    <polygon points="0,-92  7,-18  0,0  -7,-18" opacity="0.85" transform="rotate(135)"/>
    <polygon points="0,-92  7,-18  0,0  -7,-18" opacity="0.85" transform="rotate(225)"/>
    <polygon points="0,-92  7,-18  0,0  -7,-18" opacity="0.85" transform="rotate(315)"/>
  </g>

  <!-- Center: gold ring with plum core -->
  <circle cx="256" cy="256" r="14" fill="#c9a84c"/>
  <circle cx="256" cy="256" r="7"  fill="#0a0614"/>

  <!-- Cardinal tip dots -->
  <circle cx="256" cy="108" r="4.5" fill="#c9a84c" opacity="0.90"/>
  <circle cx="404" cy="256" r="4.5" fill="#c9a84c" opacity="0.90"/>
  <circle cx="256" cy="404" r="4.5" fill="#c9a84c" opacity="0.90"/>
  <circle cx="108" cy="256" r="4.5" fill="#c9a84c" opacity="0.90"/>
</svg>
